# xmcd
#
# Track frame offsets: 
#        150
#        13465
#        32385
#        42842
#        59763
#        74697
#        93284
#        107604
#        125002
#        137889
#        155256
#        170622
#        183876
#        195809
#        213955
#
# Disc length: 3099 seconds
#
# Revision: 0
# Processed by: cddbd v1.5.2PL0 Copyright (c) Steve Scherf et al.
# Submitted via: ExactAudioCopy v0.95b4
#
DISCID=d00c190f
DTITLE=Los Agentos - New Blues Standards???
DYEAR=2007
DGENRE=Blues
TTITLE0=01 Johny Guitar
TTITLE1=02 Honky Tonk Woman
TTITLE2=03 Tush
TTITLE3=04 Smoke On The Water
TTITLE4=05 Come Together In The Morning
TTITLE5=06 Sweet Home Alabama
TTITLE6=07 Mary Had A Little Lamb
TTITLE7=08 Little Wing
TTITLE8=09 Black Magic Woman
TTITLE9=10 Money For Nothing
TTITLE10=11 I Can't Stop Loving You
TTITLE11=12 I'm Tore Down
TTITLE12=13 Matchbox
TTITLE13=14 What's Up
TTITLE14=15 Is This Love?
EXTD=
EXTT0=
EXTT1=
EXTT2=
EXTT3=
EXTT4=
EXTT5=
EXTT6=
EXTT7=
EXTT8=
EXTT9=
EXTT10=
EXTT11=
EXTT12=
EXTT13=
EXTT14=
PLAYORDER=
